<svg width="200" height="200" viewBox="0 0 200 200" xmlns="http://www.w3.org/2000/svg">
  <defs>
    <linearGradient id="waveGradient" x1="0%" y1="0%" x2="100%" y2="100%">
      <stop offset="0%" style="stop-color:#667eea;stop-opacity:1" />
      <stop offset="100%" style="stop-color:#764ba2;stop-opacity:1" />
    </linearGradient>
    <linearGradient id="leafGradient" x1="0%" y1="0%" x2="100%" y2="100%">
      <stop offset="0%" style="stop-color:#10b981;stop-opacity:1" />
      <stop offset="100%" style="stop-color:#059669;stop-opacity:1" />
    </linearGradient>
  </defs>
  
  <!-- Background circle -->
  <circle cx="100" cy="100" r="95" fill="url(#waveGradient)" opacity="0.1"/>
  
  <!-- Ship hull -->
  <path d="M 40 140 Q 100 120 160 140 L 160 160 L 40 160 Z" fill="url(#waveGradient)"/>
  
  <!-- Ship deck -->
  <path d="M 50 120 Q 100 100 150 120 L 150 140 L 50 140 Z" fill="url(#waveGradient)" opacity="0.8"/>
  
  <!-- Ship windows -->
  <circle cx="70" cy="130" r="5" fill="white" opacity="0.9"/>
  <circle cx="100" cy="128" r="5" fill="white" opacity="0.9"/>
  <circle cx="130" cy="130" r="5" fill="white" opacity="0.9"/>
  
  <!-- Eco leaf -->
  <path d="M 120 80 Q 130 70 140 80 Q 145 85 140 90 Q 135 95 130 90 Q 125 85 120 80" fill="url(#leafGradient)"/>
  <path d="M 130 90 Q 135 100 140 110 Q 145 105 140 100 Q 135 95 130 90" fill="url(#leafGradient)"/>
  
  <!-- Waves -->
  <path d="M 20 150 Q 30 145 40 150 T 60 150 T 80 150 T 100 150 T 120 150 T 140 150 T 160 150 T 180 150" 
        stroke="url(#waveGradient)" stroke-width="3" fill="none" opacity="0.6"/>
  <path d="M 30 160 Q 40 155 50 160 T 70 160 T 90 160 T 110 160 T 130 160 T 150 160 T 170 160" 
        stroke="url(#waveGradient)" stroke-width="2" fill="none" opacity="0.4"/>
</svg>

